<svg width="181" height="181" viewBox="0 0 181 181" fill="none" xmlns="http://www.w3.org/2000/svg">
<g id="4F ALBA 2">
<g id="ARC">
<path id="Path" d="M29.6951 26.4395C28.2239 26.4395 27.0312 27.6321 27.0312 29.1033" stroke="white" stroke-width="0.5" stroke-linecap="round" stroke-linejoin="round"/>
</g>
<g id="LINE">
<path id="Path_2" d="M29.6943 26.4395V27.1986" stroke="white" stroke-width="0.5" stroke-linecap="round" stroke-linejoin="round"/>
</g>
<g id="ARC-2">
<path id="Path_3" d="M29.6952 27.1992C28.6543 27.1992 27.8105 28.043 27.8105 29.0839" stroke="white" stroke-width="0.5" stroke-linecap="round" stroke-linejoin="round"/>
</g>
<g id="LINE-2">
<path id="Path_4" d="M27.8119 29.083H27.0527" stroke="white" stroke-width="0.5" stroke-linecap="round" stroke-linejoin="round"/>
</g>
<g id="LINE-3">
<path id="Path_5" d="M29.6953 26.4394H81.2333" stroke="white" stroke-width="0.5" stroke-linecap="round" stroke-linejoin="round"/>
</g>
<g id="LINE-4">
<path id="Path_6" d="M81.2334 26.4395V27.1986" stroke="white" stroke-width="0.5" stroke-linecap="round" stroke-linejoin="round"/>
</g>
<g id="LINE-5">
<path id="Path_7" d="M81.2333 27.1992H29.6953" stroke="white" stroke-width="0.5" stroke-linecap="round" stroke-linejoin="round"/>
</g>
<g id="LINE-6">
<path id="Path_8" d="M27.8115 29.083V152.071" stroke="white" stroke-width="0.5" stroke-linecap="round" stroke-linejoin="round"/>
</g>
<g id="LINE-7">
<path id="Path_9" d="M27.8119 152.072H27.0527" stroke="white" stroke-width="0.5" stroke-linecap="round" stroke-linejoin="round"/>
</g>
<g id="LINE-8">
<path id="Path_10" d="M27.0537 152.071V29.083" stroke="white" stroke-width="0.5" stroke-linecap="round" stroke-linejoin="round"/>
</g>
<g id="ARC-3">
<path id="Path_11" d="M83.8786 29.0828C83.8786 27.6116 82.686 26.4189 81.2148 26.4189" stroke="white" stroke-width="0.5" stroke-linecap="round" stroke-linejoin="round"/>
</g>
<g id="LINE-9">
<path id="Path_12" d="M83.8783 29.083H83.1191" stroke="white" stroke-width="0.5" stroke-linecap="round" stroke-linejoin="round"/>
</g>
<g id="ARC-4">
<path id="Path_13" d="M83.1171 29.0839C83.1171 28.043 82.2733 27.1992 81.2324 27.1992" stroke="white" stroke-width="0.5" stroke-linecap="round" stroke-linejoin="round"/>
</g>
<g id="ARC-5">
<path id="Path_14" d="M27.8105 152.072C27.8215 153.105 28.6621 153.937 29.6952 153.937" stroke="white" stroke-width="0.5" stroke-linecap="round" stroke-linejoin="round"/>
</g>
<g id="LINE-10">
<path id="Path_15" d="M29.6943 153.957V154.716" stroke="white" stroke-width="0.5" stroke-linecap="round" stroke-linejoin="round"/>
</g>
<g id="ARC-6">
<path id="Path_16" d="M27.0527 152.072C27.0527 153.543 28.2454 154.736 29.7165 154.736" stroke="white" stroke-width="0.5" stroke-linecap="round" stroke-linejoin="round"/>
</g>
<g id="LINE-11">
<path id="Path_17" d="M83.8799 29.083V152.071" stroke="white" stroke-width="0.5" stroke-linecap="round" stroke-linejoin="round"/>
</g>
<g id="LINE-12">
<path id="Path_18" d="M83.8783 152.072H83.1191" stroke="white" stroke-width="0.5" stroke-linecap="round" stroke-linejoin="round"/>
</g>
<g id="LINE-13">
<path id="Path_19" d="M83.1201 152.071V29.083" stroke="white" stroke-width="0.5" stroke-linecap="round" stroke-linejoin="round"/>
</g>
<g id="LINE-14">
<path id="Path_20" d="M29.6953 153.957H81.2333" stroke="white" stroke-width="0.5" stroke-linecap="round" stroke-linejoin="round"/>
</g>
<g id="LINE-15">
<path id="Path_21" d="M81.2334 153.957V154.716" stroke="white" stroke-width="0.5" stroke-linecap="round" stroke-linejoin="round"/>
</g>
<g id="LINE-16">
<path id="Path_22" d="M81.2333 154.716H29.6953" stroke="white" stroke-width="0.5" stroke-linecap="round" stroke-linejoin="round"/>
</g>
<g id="ARC-7">
<path id="Path_23" d="M81.2324 154.716C82.7036 154.716 83.8962 153.523 83.8962 152.052" stroke="white" stroke-width="0.5" stroke-linecap="round" stroke-linejoin="round"/>
</g>
<g id="ARC-8">
<path id="Path_24" d="M81.2324 153.936C81.7323 153.936 82.2116 153.738 82.5651 153.384C82.9185 153.031 83.1171 152.552 83.1171 152.052" stroke="white" stroke-width="0.5" stroke-linecap="round" stroke-linejoin="round"/>
</g>
<g id="LINE-17">
<path id="Path_25" d="M178.357 2.7988H2.79883" stroke="white" stroke-width="0.5" stroke-linecap="round" stroke-linejoin="round"/>
</g>
<g id="LINE-18">
<path id="Path_26" d="M178.358 178.357V2.79883" stroke="white" stroke-width="0.5" stroke-linecap="round" stroke-linejoin="round"/>
</g>
<g id="LINE-19">
<path id="Path_27" d="M2.79883 178.356H178.357" stroke="white" stroke-width="0.5" stroke-linecap="round" stroke-linejoin="round"/>
</g>
<g id="LINE-20">
<path id="Path_28" d="M2.79782 2.79883V178.357" stroke="white" stroke-width="0.5" stroke-linecap="round" stroke-linejoin="round"/>
</g>
<g id="LINE-21">
<path id="Path_29" d="M180.241 0.907227V180.241" stroke="white" stroke-width="0.5" stroke-linecap="round" stroke-linejoin="round"/>
</g>
<g id="LINE-22">
<path id="Path_30" d="M180.242 180.241L178.357 178.356" stroke="white" stroke-width="0.5" stroke-linecap="round" stroke-linejoin="round"/>
</g>
<g id="LINE-23">
<path id="Path_31" d="M180.242 0.907227L178.357 2.79853" stroke="white" stroke-width="0.5" stroke-linecap="round" stroke-linejoin="round"/>
</g>
<g id="LINE-24">
<path id="Path_32" d="M180.24 180.242H0.90625" stroke="white" stroke-width="0.5" stroke-linecap="round" stroke-linejoin="round"/>
</g>
<g id="LINE-25">
<path id="Path_33" d="M2.79755 178.356L0.90625 180.241" stroke="white" stroke-width="0.5" stroke-linecap="round" stroke-linejoin="round"/>
</g>
<g id="LINE-26">
<path id="Path_34" d="M2.79755 2.79853L0.90625 0.907227" stroke="white" stroke-width="0.5" stroke-linecap="round" stroke-linejoin="round"/>
</g>
<g id="LINE-27">
<path id="Path_35" d="M0.90625 0.907194H180.24" stroke="white" stroke-width="0.5" stroke-linecap="round" stroke-linejoin="round"/>
</g>
<g id="LINE-28">
<path id="Path_36" d="M0.907194 180.241V0.907227" stroke="white" stroke-width="0.5" stroke-linecap="round" stroke-linejoin="round"/>
</g>
<g id="ARC-9">
<path id="Path_37" d="M80.9473 153.11C81.6829 153.11 82.2792 152.514 82.2792 151.778" stroke="white" stroke-width="0.5" stroke-linecap="round" stroke-linejoin="round"/>
</g>
<g id="LINE-29">
<path id="Path_38" d="M29.9824 153.11H80.9477" stroke="white" stroke-width="0.5" stroke-linecap="round" stroke-linejoin="round"/>
</g>
<g id="ARC-10">
<path id="Path_39" d="M28.6582 151.785C28.6582 152.521 29.2545 153.117 29.9901 153.117" stroke="white" stroke-width="0.5" stroke-linecap="round" stroke-linejoin="round"/>
</g>
<g id="LINE-30">
<path id="Path_40" d="M82.2726 151.785H82.8387" stroke="white" stroke-width="0.5" stroke-linecap="round" stroke-linejoin="round"/>
</g>
<g id="ARC-11">
<path id="Path_41" d="M80.9473 153.676C81.9918 153.676 82.8386 152.83 82.8386 151.785" stroke="white" stroke-width="0.5" stroke-linecap="round" stroke-linejoin="round"/>
</g>
<g id="LINE-31">
<path id="Path_42" d="M80.9463 153.11V153.676" stroke="white" stroke-width="0.5" stroke-linecap="round" stroke-linejoin="round"/>
</g>
<g id="LINE-32">
<path id="Path_43" d="M80.9477 153.676H29.9824" stroke="white" stroke-width="0.5" stroke-linecap="round" stroke-linejoin="round"/>
</g>
<g id="LINE-33">
<path id="Path_44" d="M29.9834 153.676V153.11" stroke="white" stroke-width="0.5" stroke-linecap="round" stroke-linejoin="round"/>
</g>
<g id="ARC-12">
<path id="Path_45" d="M28.0723 151.785C28.0723 152.287 28.2715 152.768 28.6262 153.123C28.9809 153.477 29.462 153.676 29.9636 153.676" stroke="white" stroke-width="0.5" stroke-linecap="round" stroke-linejoin="round"/>
</g>
<g id="LINE-34">
<path id="Path_46" d="M28.091 151.785H28.657" stroke="white" stroke-width="0.5" stroke-linecap="round" stroke-linejoin="round"/>
</g>
<g id="LINE-35">
<path id="Path_47" d="M82.8388 29.3643V58.8193" stroke="white" stroke-width="0.5" stroke-linecap="round" stroke-linejoin="round"/>
</g>
<g id="LINE-36">
<path id="Path_48" d="M82.2724 58.2466V29.3643" stroke="white" stroke-width="0.5" stroke-linecap="round" stroke-linejoin="round"/>
</g>
<g id="LINE-37">
<path id="Path_49" d="M82.8387 29.3642H82.2726" stroke="white" stroke-width="0.5" stroke-linecap="round" stroke-linejoin="round"/>
</g>
<g id="LINE-38">
<path id="Path_50" d="M28.6591 29.3643V151.786" stroke="white" stroke-width="0.5" stroke-linecap="round" stroke-linejoin="round"/>
</g>
<g id="LINE-39">
<path id="Path_51" d="M28.0908 151.786V29.3643" stroke="white" stroke-width="0.5" stroke-linecap="round" stroke-linejoin="round"/>
</g>
<g id="LINE-40">
<path id="Path_52" d="M28.657 29.3642H28.091" stroke="white" stroke-width="0.5" stroke-linecap="round" stroke-linejoin="round"/>
</g>
<g id="ARC-13">
<path id="Path_53" d="M82.8386 29.3641C82.8349 28.3222 81.9892 27.4795 80.9473 27.4795" stroke="white" stroke-width="0.5" stroke-linecap="round" stroke-linejoin="round"/>
</g>
<g id="ARC-14">
<path id="Path_54" d="M82.2714 29.3641C82.2714 28.6285 81.675 28.0322 80.9395 28.0322" stroke="white" stroke-width="0.5" stroke-linecap="round" stroke-linejoin="round"/>
</g>
<g id="LINE-41">
<path id="Path_55" d="M80.9463 27.4796V28.0457" stroke="white" stroke-width="0.5" stroke-linecap="round" stroke-linejoin="round"/>
</g>
<g id="ARC-15">
<path id="Path_56" d="M29.9823 28.0723C29.2467 28.0723 28.6504 28.6686 28.6504 29.4042" stroke="white" stroke-width="0.5" stroke-linecap="round" stroke-linejoin="round"/>
</g>
<g id="ARC-16">
<path id="Path_57" d="M29.9835 27.4796C29.4796 27.4743 28.9944 27.6703 28.6356 28.0241C28.2768 28.3779 28.074 28.8603 28.0723 29.3642" stroke="white" stroke-width="0.5" stroke-linecap="round" stroke-linejoin="round"/>
</g>
<g id="LINE-42">
<path id="Path_58" d="M29.9834 28.0457V27.4796" stroke="white" stroke-width="0.5" stroke-linecap="round" stroke-linejoin="round"/>
</g>
<g id="LINE-43">
<path id="Path_59" d="M80.9477 28.0449H29.9824" stroke="white" stroke-width="0.5" stroke-linecap="round" stroke-linejoin="round"/>
</g>
<g id="LINE-44">
<path id="Path_60" d="M29.9824 27.4795H80.9477" stroke="white" stroke-width="0.5" stroke-linecap="round" stroke-linejoin="round"/>
</g>
<g id="LINE-45">
<path id="Path_61" d="M82.8388 29.3643V151.786" stroke="white" stroke-width="0.5" stroke-linecap="round" stroke-linejoin="round"/>
</g>
<g id="LINE-46">
<path id="Path_62" d="M82.2724 151.786V29.3643" stroke="white" stroke-width="0.5" stroke-linecap="round" stroke-linejoin="round"/>
</g>
<g id="ARC-17">
<path id="Path_63" d="M99.9216 26.4395C98.4504 26.4395 97.2578 27.6321 97.2578 29.1033" stroke="white" stroke-width="0.5" stroke-linecap="round" stroke-linejoin="round"/>
</g>
<g id="LINE-47">
<path id="Path_64" d="M99.9209 26.4395V27.1986" stroke="white" stroke-width="0.5" stroke-linecap="round" stroke-linejoin="round"/>
</g>
<g id="ARC-18">
<path id="Path_65" d="M99.9198 27.1992C99.4194 27.1975 98.939 27.3954 98.5852 27.7493C98.2314 28.1031 98.0334 28.5835 98.0352 29.0839" stroke="white" stroke-width="0.5" stroke-linecap="round" stroke-linejoin="round"/>
</g>
<g id="LINE-48">
<path id="Path_66" d="M98.0365 29.083H97.2773" stroke="white" stroke-width="0.5" stroke-linecap="round" stroke-linejoin="round"/>
</g>
<g id="LINE-49">
<path id="Path_67" d="M99.9219 26.4394H151.46" stroke="white" stroke-width="0.5" stroke-linecap="round" stroke-linejoin="round"/>
</g>
<g id="LINE-50">
<path id="Path_68" d="M151.46 26.4395V27.1986" stroke="white" stroke-width="0.5" stroke-linecap="round" stroke-linejoin="round"/>
</g>
<g id="LINE-51">
<path id="Path_69" d="M151.46 27.1992H99.9219" stroke="white" stroke-width="0.5" stroke-linecap="round" stroke-linejoin="round"/>
</g>
<g id="LINE-52">
<path id="Path_70" d="M98.0381 29.083V152.071" stroke="white" stroke-width="0.5" stroke-linecap="round" stroke-linejoin="round"/>
</g>
<g id="LINE-53">
<path id="Path_71" d="M98.0365 152.072H97.2773" stroke="white" stroke-width="0.5" stroke-linecap="round" stroke-linejoin="round"/>
</g>
<g id="LINE-54">
<path id="Path_72" d="M97.2763 152.071V29.083" stroke="white" stroke-width="0.5" stroke-linecap="round" stroke-linejoin="round"/>
</g>
<g id="ARC-19">
<path id="Path_73" d="M154.095 29.0828C154.095 27.6116 152.903 26.4189 151.432 26.4189" stroke="white" stroke-width="0.5" stroke-linecap="round" stroke-linejoin="round"/>
</g>
<g id="LINE-55">
<path id="Path_74" d="M154.096 29.083H153.344" stroke="white" stroke-width="0.5" stroke-linecap="round" stroke-linejoin="round"/>
</g>
<g id="ARC-20">
<path id="Path_75" d="M153.344 29.0839C153.344 28.043 152.5 27.1992 151.459 27.1992" stroke="white" stroke-width="0.5" stroke-linecap="round" stroke-linejoin="round"/>
</g>
<g id="ARC-21">
<path id="Path_76" d="M98.0352 152.072C98.0352 153.113 98.8789 153.957 99.9198 153.957" stroke="white" stroke-width="0.5" stroke-linecap="round" stroke-linejoin="round"/>
</g>
<g id="LINE-56">
<path id="Path_77" d="M99.9209 153.957V154.716" stroke="white" stroke-width="0.5" stroke-linecap="round" stroke-linejoin="round"/>
</g>
<g id="ARC-22">
<path id="Path_78" d="M97.2773 152.072C97.2773 153.543 98.47 154.736 99.9411 154.736" stroke="white" stroke-width="0.5" stroke-linecap="round" stroke-linejoin="round"/>
</g>
<g id="LINE-57">
<path id="Path_79" d="M154.097 29.083V152.071" stroke="white" stroke-width="0.5" stroke-linecap="round" stroke-linejoin="round"/>
</g>
<g id="LINE-58">
<path id="Path_80" d="M154.096 152.072H153.344" stroke="white" stroke-width="0.5" stroke-linecap="round" stroke-linejoin="round"/>
</g>
<g id="LINE-59">
<path id="Path_81" d="M153.343 152.071V29.083" stroke="white" stroke-width="0.5" stroke-linecap="round" stroke-linejoin="round"/>
</g>
<g id="LINE-60">
<path id="Path_82" d="M99.9219 153.957H151.46" stroke="white" stroke-width="0.5" stroke-linecap="round" stroke-linejoin="round"/>
</g>
<g id="LINE-61">
<path id="Path_83" d="M151.46 153.957V154.716" stroke="white" stroke-width="0.5" stroke-linecap="round" stroke-linejoin="round"/>
</g>
<g id="LINE-62">
<path id="Path_84" d="M151.46 154.716H99.9219" stroke="white" stroke-width="0.5" stroke-linecap="round" stroke-linejoin="round"/>
</g>
<g id="ARC-23">
<path id="Path_85" d="M151.459 154.716C152.93 154.716 154.123 153.523 154.123 152.052" stroke="white" stroke-width="0.5" stroke-linecap="round" stroke-linejoin="round"/>
</g>
<g id="ARC-24">
<path id="Path_86" d="M151.459 153.936C151.959 153.936 152.438 153.738 152.792 153.384C153.145 153.031 153.344 152.552 153.344 152.052" stroke="white" stroke-width="0.5" stroke-linecap="round" stroke-linejoin="round"/>
</g>
<g id="ARC-25">
<path id="Path_87" d="M151.174 153.11C151.909 153.11 152.506 152.514 152.506 151.778" stroke="white" stroke-width="0.5" stroke-linecap="round" stroke-linejoin="round"/>
</g>
<g id="LINE-63">
<path id="Path_88" d="M100.207 153.11H151.172" stroke="white" stroke-width="0.5" stroke-linecap="round" stroke-linejoin="round"/>
</g>
<g id="ARC-26">
<path id="Path_89" d="M98.8828 151.785C98.8828 152.521 99.4791 153.117 100.215 153.117" stroke="white" stroke-width="0.5" stroke-linecap="round" stroke-linejoin="round"/>
</g>
<g id="LINE-64">
<path id="Path_90" d="M152.492 151.785H153.065" stroke="white" stroke-width="0.5" stroke-linecap="round" stroke-linejoin="round"/>
</g>
<g id="ARC-27">
<path id="Path_91" d="M151.174 153.676C152.218 153.676 153.065 152.83 153.065 151.785" stroke="white" stroke-width="0.5" stroke-linecap="round" stroke-linejoin="round"/>
</g>
<g id="LINE-65">
<path id="Path_92" d="M151.173 153.11V153.676" stroke="white" stroke-width="0.5" stroke-linecap="round" stroke-linejoin="round"/>
</g>
<g id="LINE-66">
<path id="Path_93" d="M151.172 153.676H100.207" stroke="white" stroke-width="0.5" stroke-linecap="round" stroke-linejoin="round"/>
</g>
<g id="LINE-67">
<path id="Path_94" d="M100.206 153.676V153.11" stroke="white" stroke-width="0.5" stroke-linecap="round" stroke-linejoin="round"/>
</g>
<g id="ARC-28">
<path id="Path_95" d="M98.3164 151.785C98.3164 152.83 99.1632 153.676 100.208 153.676" stroke="white" stroke-width="0.5" stroke-linecap="round" stroke-linejoin="round"/>
</g>
<g id="LINE-68">
<path id="Path_96" d="M98.3156 151.785H98.8816" stroke="white" stroke-width="0.5" stroke-linecap="round" stroke-linejoin="round"/>
</g>
<g id="LINE-69">
<path id="Path_97" d="M153.065 29.3643V58.8193" stroke="white" stroke-width="0.5" stroke-linecap="round" stroke-linejoin="round"/>
</g>
<g id="LINE-70">
<path id="Path_98" d="M152.491 58.2466V29.3643" stroke="white" stroke-width="0.5" stroke-linecap="round" stroke-linejoin="round"/>
</g>
<g id="LINE-71">
<path id="Path_99" d="M153.065 29.3642H152.492" stroke="white" stroke-width="0.5" stroke-linecap="round" stroke-linejoin="round"/>
</g>
<g id="LINE-72">
<path id="Path_100" d="M98.8818 29.3643V151.786" stroke="white" stroke-width="0.5" stroke-linecap="round" stroke-linejoin="round"/>
</g>
<g id="LINE-73">
<path id="Path_101" d="M98.3154 151.786V29.3643" stroke="white" stroke-width="0.5" stroke-linecap="round" stroke-linejoin="round"/>
</g>
<g id="LINE-74">
<path id="Path_102" d="M98.8816 29.3642H98.3156" stroke="white" stroke-width="0.5" stroke-linecap="round" stroke-linejoin="round"/>
</g>
<g id="ARC-29">
<path id="Path_103" d="M153.065 29.3641C153.061 28.3222 152.216 27.4795 151.174 27.4795" stroke="white" stroke-width="0.5" stroke-linecap="round" stroke-linejoin="round"/>
</g>
<g id="ARC-30">
<path id="Path_104" d="M152.49 29.3641C152.49 28.6285 151.894 28.0322 151.158 28.0322" stroke="white" stroke-width="0.5" stroke-linecap="round" stroke-linejoin="round"/>
</g>
<g id="LINE-75">
<path id="Path_105" d="M151.173 27.4796V28.0457" stroke="white" stroke-width="0.5" stroke-linecap="round" stroke-linejoin="round"/>
</g>
<g id="ARC-31">
<path id="Path_106" d="M100.207 28.0723C99.4713 28.0723 98.875 28.6686 98.875 29.4042" stroke="white" stroke-width="0.5" stroke-linecap="round" stroke-linejoin="round"/>
</g>
<g id="ARC-32">
<path id="Path_107" d="M100.208 27.4795C99.1658 27.4795 98.3201 28.3222 98.3164 29.3641" stroke="white" stroke-width="0.5" stroke-linecap="round" stroke-linejoin="round"/>
</g>
<g id="LINE-76">
<path id="Path_108" d="M100.206 28.0457V27.4796" stroke="white" stroke-width="0.5" stroke-linecap="round" stroke-linejoin="round"/>
</g>
<g id="LINE-77">
<path id="Path_109" d="M151.172 28.0449H100.207" stroke="white" stroke-width="0.5" stroke-linecap="round" stroke-linejoin="round"/>
</g>
<g id="LINE-78">
<path id="Path_110" d="M100.207 27.4795H151.172" stroke="white" stroke-width="0.5" stroke-linecap="round" stroke-linejoin="round"/>
</g>
<g id="LINE-79">
<path id="Path_111" d="M153.065 29.3643V151.786" stroke="white" stroke-width="0.5" stroke-linecap="round" stroke-linejoin="round"/>
</g>
<g id="LINE-80">
<path id="Path_112" d="M152.491 151.786V29.3643" stroke="white" stroke-width="0.5" stroke-linecap="round" stroke-linejoin="round"/>
</g>
<g id="stop">
<path id="Shape" fill-rule="evenodd" clip-rule="evenodd" d="M60.7021 131.207H51.432C50.9723 131.207 50.5996 131.58 50.5996 132.039V141.283C50.6033 141.766 50.9958 142.155 51.4787 142.155H60.7021C60.9216 142.157 61.1327 142.071 61.288 141.915C61.4432 141.76 61.5297 141.549 61.5279 141.329V132.039C61.5296 131.819 61.4434 131.608 61.2884 131.451C61.1333 131.295 60.9223 131.207 60.7021 131.207ZM51.1064 132.039C51.1064 131.859 51.2525 131.713 51.4327 131.713H60.7027C60.8829 131.713 61.029 131.859 61.029 132.039V141.329C61.029 141.51 60.8829 141.656 60.7027 141.656H51.4793C51.2733 141.656 51.1064 141.489 51.1064 141.283V132.039Z" fill="white"/>
</g>
<g id="stop-2">
<path id="Shape_2" fill-rule="evenodd" clip-rule="evenodd" d="M130.442 131.207H121.152C120.932 131.207 120.721 131.295 120.566 131.451C120.411 131.608 120.324 131.819 120.326 132.039V141.283C120.326 141.765 120.717 142.155 121.199 142.155H130.442C130.662 142.157 130.874 142.071 131.03 141.916C131.187 141.761 131.274 141.55 131.274 141.329V132.039C131.274 131.58 130.902 131.207 130.442 131.207ZM120.827 132.039C120.827 131.859 120.973 131.713 121.153 131.713H130.443C130.623 131.713 130.769 131.859 130.769 132.039V141.329C130.769 141.51 130.623 141.656 130.443 141.656H121.199C120.994 141.656 120.827 141.489 120.827 141.283V132.039Z" fill="white"/>
</g>
<g id="stop-3">
<path id="Shape_3" fill-rule="evenodd" clip-rule="evenodd" d="M60.8814 40.1045H51.5981C51.3779 40.1027 51.1661 40.189 51.0098 40.344C50.8535 40.4991 50.7656 40.7101 50.7656 40.9303V50.207C50.7656 50.6925 51.1592 51.0861 51.6447 51.0861H60.8814C61.3412 51.0861 61.7139 50.7134 61.7139 50.2536V40.9303C61.7139 40.7101 61.626 40.4991 61.4697 40.344C61.3133 40.189 61.1016 40.1027 60.8814 40.1045ZM51.2643 40.9307C51.268 40.7494 51.416 40.6044 51.5973 40.6044L60.8807 40.5711C60.9684 40.5693 61.0531 40.6029 61.1157 40.6643C61.1784 40.7257 61.2137 40.8097 61.2137 40.8974V50.2207C61.2137 50.3084 61.1784 50.3925 61.1157 50.4539C61.0531 50.5153 60.9684 50.5488 60.8807 50.547H51.6439C51.4369 50.5471 51.268 50.3812 51.2643 50.1741V40.9307Z" fill="white"/>
</g>
<g id="stop-4">
<path id="Shape_4" fill-rule="evenodd" clip-rule="evenodd" d="M130.627 40.1045H121.303C120.85 40.1081 120.484 40.4768 120.484 40.9303V50.1737C120.484 50.6592 120.878 51.0527 121.363 51.0527H130.627C131.071 51.0495 131.435 50.6977 131.453 50.2536V40.9303C131.453 40.4742 131.083 40.1045 130.627 40.1045ZM120.977 40.9306C120.977 40.7504 121.123 40.6043 121.303 40.6043L130.626 40.571C130.713 40.571 130.796 40.6054 130.857 40.6666C130.918 40.7278 130.953 40.8108 130.953 40.8973V50.2207C130.953 50.4009 130.807 50.547 130.626 50.547H121.35C121.144 50.547 120.977 50.38 120.977 50.174V40.9306Z" fill="white"/>
</g>
</g>
</svg>
