<svg width="181" height="181" viewBox="0 0 181 181" fill="none" xmlns="http://www.w3.org/2000/svg">
<g id="5H ARIA TT">
<g id="LINE">
<path id="Path" d="M180.347 0.942383L178.262 3.03497" stroke="white" stroke-width="0.43" stroke-linecap="round" stroke-linejoin="round"/>
</g>
<g id="LINE-2">
<path id="Path_2" d="M180.347 180.206L178.262 178.121" stroke="white" stroke-width="0.43" stroke-linecap="round" stroke-linejoin="round"/>
</g>
<g id="LINE-3">
<path id="Path_3" d="M180.251 0.943609H0.9375" stroke="white" stroke-width="0.43" stroke-linecap="round" stroke-linejoin="round"/>
</g>
<g id="LINE-4">
<path id="Path_4" d="M179.007 3.03736H3.15234" stroke="white" stroke-width="0.43" stroke-linecap="round" stroke-linejoin="round"/>
</g>
<g id="LINE-5">
<path id="Path_5" d="M3.17897 3.03497L1.09375 0.942383" stroke="white" stroke-width="0.43" stroke-linecap="round" stroke-linejoin="round"/>
</g>
<g id="LINE-6">
<path id="Path_6" d="M1.0625 0.943609H180.376" stroke="white" stroke-width="0.43" stroke-linecap="round" stroke-linejoin="round"/>
</g>
<g id="LINE-7">
<path id="Path_7" d="M3.1731 2.2959V178.144" stroke="white" stroke-width="0.43" stroke-linecap="round" stroke-linejoin="round"/>
</g>
<g id="LINE-8">
<path id="Path_8" d="M1.08716 180.242V0.928711" stroke="white" stroke-width="0.43" stroke-linecap="round" stroke-linejoin="round"/>
</g>
<g id="LINE-9">
<path id="Path_9" d="M180.349 0.928711V180.242" stroke="white" stroke-width="0.43" stroke-linecap="round" stroke-linejoin="round"/>
</g>
<g id="LINE-10">
<path id="Path_10" d="M178.263 178.144V2.2959" stroke="white" stroke-width="0.43" stroke-linecap="round" stroke-linejoin="round"/>
</g>
<g id="LINE-11">
<path id="Path_11" d="M3.17897 178.121L1.09375 180.206" stroke="white" stroke-width="0.43" stroke-linecap="round" stroke-linejoin="round"/>
</g>
<g id="LINE-12">
<path id="Path_12" d="M3.15234 178.12H179.007" stroke="white" stroke-width="0.43" stroke-linecap="round" stroke-linejoin="round"/>
</g>
<g id="LINE-13">
<path id="Path_13" d="M180.376 180.207H1.0625" stroke="white" stroke-width="0.43" stroke-linecap="round" stroke-linejoin="round"/>
</g>
<g id="Group" opacity="0.8">
<path id="Path_14" d="M72.9397 61.5475H69.1133L69.2671 60.0342H73.0936L72.9397 61.5475Z" fill="white"/>
<path id="Path_15" d="M72.8164 66.4613L73.3984 60.7881H74.9303L74.3483 66.4613H72.8164Z" fill="white"/>
<path id="Path_16" opacity="0.05" d="M68.2233 66.4613L68.8053 60.7881H67.2734L66.6914 66.4613H68.2233Z" fill="white"/>
<path id="Path_17" d="M72.4881 65.8945H68.6617L68.5078 67.4078H72.3343L72.4881 65.8945Z" fill="white"/>
<path id="Path_18" opacity="0.05" d="M72.1992 72.5074L72.7812 66.8408H74.3131L73.7311 72.5074H72.1992Z" fill="white"/>
<path id="Path_19" d="M67.6061 72.5074L68.1881 66.8408H66.6562L66.0742 72.5074H67.6061Z" fill="white"/>
<path id="Path_20" d="M71.8972 71.7539H68.064L67.9102 73.2605H71.7366L71.8972 71.7539Z" fill="white"/>
<path id="Path_21" opacity="0.05" d="M75.6699 72.5072C75.6194 72.9341 75.2582 73.2568 74.827 73.2606C74.6334 73.2622 74.4486 73.1802 74.3203 73.0357C74.1921 72.8913 74.1329 72.6985 74.158 72.5072C74.2113 72.0819 74.5708 71.7606 75.0009 71.7539C75.1945 71.7523 75.3793 71.8343 75.5076 71.9788C75.6359 72.1232 75.6951 72.316 75.6699 72.5072Z" fill="white"/>
<path id="Path_22" d="M86.5218 61.5475H82.6953L82.8492 60.0342H86.6756L86.5218 61.5475Z" fill="white"/>
<path id="Path_23" opacity="0.05" d="M81.8104 66.4613L82.3924 60.7881H80.8605L80.2852 66.4613H81.8104Z" fill="white"/>
<path id="Path_24" d="M86.0769 65.8945H82.2437L82.0898 67.4078H85.923L86.0769 65.8945Z" fill="white"/>
<path id="Path_25" opacity="0.05" d="M85.7812 72.5074L86.3632 66.8408H87.8952L87.3132 72.5074H85.7812Z" fill="white"/>
<path id="Path_26" d="M81.1921 72.5074L81.7741 66.8408H80.2422L79.6602 72.5074H81.1921Z" fill="white"/>
<path id="Path_27" d="M85.4792 71.7539H81.6527L81.4922 73.2605H85.3253L85.4792 71.7539Z" fill="white"/>
<path id="Path_28" d="M89.2285 72.5072C89.178 72.9341 88.8168 73.2568 88.3856 73.2606C88.192 73.2622 88.0072 73.1802 87.8789 73.0357C87.7507 72.8913 87.6914 72.6985 87.7166 72.5072C87.7671 72.0804 88.1283 71.7577 88.5595 71.7539C88.7531 71.7523 88.9379 71.8343 89.0662 71.9788C89.1944 72.1232 89.2536 72.316 89.2285 72.5072Z" fill="white"/>
<path id="Path_29" opacity="0.05" d="M91.955 63.6267C91.914 64.0614 91.5503 64.3951 91.1121 64.4C90.9186 64.4017 90.7338 64.3197 90.6055 64.1752C90.4772 64.0307 90.418 63.838 90.4432 63.6467C90.4962 63.2201 90.8549 62.8967 91.2861 62.8867C91.477 62.8856 91.6593 62.9658 91.7872 63.1072C91.915 63.2485 91.976 63.4376 91.955 63.6267Z" fill="white"/>
<path id="Path_30" opacity="0.05" d="M91.3418 69.6751C91.2858 70.099 90.9278 70.4189 90.4989 70.4284C90.3053 70.43 90.1205 70.348 89.9922 70.2035C89.8639 70.0591 89.8047 69.8663 89.8299 69.6751C89.8801 69.2471 90.2404 68.9222 90.6728 68.9151C90.8677 68.9132 91.0538 68.9961 91.1823 69.1421C91.3108 69.2881 91.3691 69.4827 91.3418 69.6751Z" fill="white"/>
<path id="Path_31" d="M100.116 61.5475H96.2891L96.4429 60.0342H100.276L100.116 61.5475Z" fill="white"/>
<path id="Path_32" opacity="0.05" d="M99.9922 66.4613L100.574 60.7881H102.106L101.524 66.4613H99.9922Z" fill="white"/>
<path id="Path_33" d="M86.4023 66.4613L86.9843 60.7881H88.5163L87.9343 66.4613H86.4023Z" fill="white"/>
<path id="Path_34" d="M95.3991 66.4613L95.9811 60.7881H94.4492L93.8672 66.4613H95.3991Z" fill="white"/>
<path id="Path_35" d="M99.6706 65.8945H95.8441L95.6836 67.4078H99.5167L99.6706 65.8945Z" fill="white"/>
<path id="Path_36" d="M99.375 72.5074L99.957 66.8408H101.489L100.907 72.5074H99.375Z" fill="white"/>
<path id="Path_37" opacity="0.05" d="M94.7819 72.5074L95.3639 66.8408H93.832L93.25 72.5074H94.7819Z" fill="white"/>
<path id="Path_38" d="M99.0663 71.7539H95.2398L95.0859 73.2605H98.9124L99.0663 71.7539Z" fill="white"/>
<path id="Path_39" opacity="0.05" d="M102.818 72.5072C102.765 72.9326 102.406 73.2539 101.975 73.2606C101.782 73.2622 101.597 73.1802 101.469 73.0357C101.34 72.8913 101.281 72.6985 101.306 72.5072C101.357 72.0804 101.718 71.7577 102.149 71.7539C102.343 71.7523 102.528 71.8343 102.656 71.9788C102.784 72.1232 102.843 72.316 102.818 72.5072Z" fill="white"/>
<path id="Path_40" d="M113.705 61.5475H109.879L110.033 60.0342H113.859L113.705 61.5475Z" fill="white"/>
<path id="Path_41" opacity="0.05" d="M113.586 66.4613L114.161 60.7881H115.693L115.118 66.4613H113.586Z" fill="white"/>
<path id="Path_42" d="M108.993 66.4613L109.575 60.7881H108.043L107.461 66.4613H108.993Z" fill="white"/>
<path id="Path_43" d="M113.254 65.8945H109.427L109.273 67.4078H113.1L113.254 65.8945Z" fill="white"/>
<path id="Path_44" opacity="0.05" d="M112.957 72.5074L113.539 66.8408H115.071L114.489 72.5074H112.957Z" fill="white"/>
<path id="Path_45" opacity="0.05" d="M108.365 72.5074L108.947 66.8408H107.415L106.84 72.5074H108.365Z" fill="white"/>
<path id="Path_46" opacity="0.05" d="M112.656 71.7539H108.83L108.676 73.2605H112.502L112.656 71.7539Z" fill="white"/>
<path id="Path_47" opacity="0.05" d="M116.408 72.5072C116.358 72.9341 115.997 73.2568 115.565 73.2606C115.372 73.2622 115.187 73.1802 115.059 73.0357C114.93 72.8913 114.871 72.6985 114.896 72.5072C114.947 72.0804 115.308 71.7577 115.739 71.7539C115.933 71.7523 116.118 71.8343 116.246 71.9788C116.374 72.1232 116.433 72.316 116.408 72.5072Z" fill="white"/>
</g>
<path id="Shape" fill-rule="evenodd" clip-rule="evenodd" d="M31.0117 66.0071C31.0165 70.2765 34.4789 73.7351 38.7484 73.7351C40.8043 73.7334 42.7751 72.9141 44.2264 71.4579C45.6776 70.0017 46.4903 68.0282 46.4851 65.9723C46.4706 61.7028 43.0004 58.2521 38.731 58.2617C34.4616 58.2713 31.0069 61.7376 31.0117 66.0071ZM32.2025 63.2941C33.2973 60.644 35.8818 58.9154 38.749 58.9154V58.8893C42.658 58.8964 45.8251 62.0635 45.8323 65.9725C45.8429 68.8398 44.1238 71.4306 41.4778 72.5352C38.8319 73.6398 35.781 73.0402 33.7497 71.0165C31.7185 68.9928 31.1077 65.9441 32.2025 63.2941Z" fill="white"/>
<path id="Shape_2" fill-rule="evenodd" clip-rule="evenodd" d="M45.0078 107.997C45.0078 112.27 48.4716 115.734 52.7445 115.734C57.0159 115.731 60.4776 112.269 60.4812 107.997C60.4812 103.725 57.0174 100.261 52.7445 100.261C48.4716 100.261 45.0078 103.725 45.0078 107.997ZM45.6617 107.998C45.6617 104.086 48.833 100.915 52.745 100.915V100.895C56.6616 100.903 59.8318 104.082 59.8282 107.998C59.8282 111.91 56.6569 115.081 52.745 115.081C48.833 115.081 45.6617 111.91 45.6617 107.998Z" fill="white"/>
<path id="Shape_3" fill-rule="evenodd" clip-rule="evenodd" d="M31.0117 149.996C31.0117 154.269 34.4756 157.733 38.7484 157.733C43.0198 157.73 46.4815 154.268 46.4851 149.996C46.4851 145.724 43.0213 142.26 38.7484 142.26C34.4756 142.26 31.0117 145.724 31.0117 149.996ZM31.6656 149.997C31.6656 146.085 34.8369 142.914 38.7489 142.914C42.6579 142.921 45.8249 146.088 45.8321 149.997C45.8321 153.909 42.6609 157.08 38.7489 157.08C34.8369 157.08 31.6656 153.909 31.6656 149.997Z" fill="white"/>
<path id="Shape_4" fill-rule="evenodd" clip-rule="evenodd" d="M134.902 65.9984C134.902 70.2713 138.366 73.7351 142.639 73.7351C146.91 73.7315 150.372 70.2698 150.376 65.9984C150.376 61.7256 146.912 58.2617 142.639 58.2617C138.366 58.2617 134.902 61.7256 134.902 65.9984ZM135.556 65.9987C135.556 62.0867 138.728 58.9154 142.64 58.9154V58.8893C144.522 58.891 146.327 59.6414 147.655 60.975C148.984 62.3087 149.728 64.1161 149.723 65.9987C149.723 69.9106 146.551 73.0819 142.64 73.0819C138.728 73.0819 135.556 69.9106 135.556 65.9987Z" fill="white"/>
<path id="Shape_5" fill-rule="evenodd" clip-rule="evenodd" d="M121.633 107.997C121.633 112.27 125.097 115.734 129.37 115.734C133.641 115.731 137.103 112.269 137.106 107.997C137.106 103.725 133.642 100.261 129.37 100.261C125.097 100.261 121.633 103.725 121.633 107.997ZM122.287 107.998C122.287 104.086 125.458 100.915 129.37 100.915V100.895C131.251 100.897 133.055 101.647 134.384 102.979C135.712 104.311 136.457 106.117 136.453 107.998C136.453 111.91 133.282 115.081 129.37 115.081C125.458 115.081 122.287 111.91 122.287 107.998Z" fill="white"/>
<path id="Shape_6" fill-rule="evenodd" clip-rule="evenodd" d="M83.177 111.699C84.3765 114.59 87.1995 116.473 90.3293 116.47C94.598 116.463 98.0557 113.003 98.0593 108.734C98.0593 105.604 96.1737 102.783 93.2819 101.586C90.3901 100.388 87.062 101.052 84.8498 103.266C82.6377 105.48 81.9774 108.808 83.177 111.699ZM83.7811 106.019C84.8795 103.372 87.4643 101.648 90.3297 101.651C94.2376 101.658 97.4028 104.826 97.4064 108.734C97.4064 111.6 95.6799 114.183 93.0323 115.279C90.3847 116.375 87.3376 115.767 85.3123 113.74C83.2871 111.713 82.6827 108.666 83.7811 106.019Z" fill="white"/>
<path id="Shape_7" fill-rule="evenodd" clip-rule="evenodd" d="M83.177 152.962C84.3765 155.853 87.1995 157.736 90.3293 157.733C94.5965 157.722 98.0521 154.264 98.0593 149.997C98.0593 146.867 96.1737 144.045 93.2819 142.848C90.3901 141.651 87.062 142.314 84.8498 144.528C82.6377 146.742 81.9774 150.071 83.177 152.962ZM83.7811 147.282C84.8795 144.635 87.4643 142.911 90.3297 142.914C94.2376 142.921 97.4028 146.089 97.4064 149.997C97.4064 152.862 95.6799 155.445 93.0323 156.541C90.3847 157.637 87.3376 157.03 85.3123 155.003C83.2871 152.976 82.6827 149.928 83.7811 147.282Z" fill="white"/>
<path id="Shape_8" fill-rule="evenodd" clip-rule="evenodd" d="M135.491 152.956C136.688 155.847 139.509 157.733 142.639 157.733C146.908 157.73 150.369 154.272 150.376 150.003C150.378 146.873 148.495 144.05 145.604 142.851C142.714 141.651 139.385 142.312 137.171 144.524C134.957 146.736 134.294 150.064 135.491 152.956ZM135.556 150.002C135.556 146.09 138.727 142.919 142.639 142.919V142.9C144.521 142.901 146.324 143.651 147.653 144.983C148.982 146.315 149.726 148.121 149.723 150.002C149.723 153.914 146.551 157.086 142.639 157.086C138.727 157.086 135.556 153.914 135.556 150.002Z" fill="white"/>
<path id="Shape_9" fill-rule="evenodd" clip-rule="evenodd" d="M64.0207 37.2782C65.2202 40.1689 68.0433 42.0522 71.173 42.0496C75.4418 42.0423 78.8995 38.5817 78.9031 34.313C78.9031 31.1832 77.0174 28.3618 74.1256 27.1647C71.2339 25.9676 67.9057 26.6307 65.6936 28.8447C63.4815 31.0587 62.8212 34.3874 64.0207 37.2782ZM64.6248 31.5981C65.7232 28.9515 68.308 27.2274 71.1735 27.2301C75.0799 27.2409 78.2429 30.4068 78.2501 34.3132C78.2501 37.1787 76.5236 39.7619 73.876 40.8578C71.2285 41.9538 68.1813 41.3466 66.1561 39.3195C64.1308 37.2923 63.5265 34.2447 64.6248 31.5981Z" fill="white"/>
<path id="Shape_10" fill-rule="evenodd" clip-rule="evenodd" d="M99.5352 34.3129C99.5352 38.5857 102.999 42.0496 107.272 42.0496C111.543 42.046 115.005 38.5842 115.009 34.3129C115.009 30.04 111.545 26.5762 107.272 26.5762C102.999 26.5762 99.5352 30.04 99.5352 34.3129ZM100.189 34.3133C100.189 30.4014 103.36 27.2301 107.272 27.2301C111.181 27.2373 114.348 30.4043 114.356 34.3133C114.356 38.2253 111.184 41.3966 107.272 41.3966C103.36 41.3966 100.189 38.2253 100.189 34.3133Z" fill="white"/>
</g>
</svg>
